HIERARCHY
ROOT Hips
{
	OFFSET 0.00000 0.00000 0.00000
	CHANNELS 6 Xposition Yposition Zposition Yrotation Zrotation Xrotation 
	JOINT Lumbar
	{
		OFFSET 0 0 0
		CHANNELS 3 Zrotation Xrotation Yrotation
		JOINT Neck
		{
			OFFSET 0.00 0.2701 0.00
			CHANNELS 3 Zrotation Xrotation Yrotation
			End Site
			{
				OFFSET 0.00 0.1379 0.00
			}
		}
		JOINT RightShoulder
		{
			OFFSET 0.0119 0.2289 0.1181
			CHANNELS 3 Zrotation Xrotation Yrotation
			JOINT RightElbow
			{
				OFFSET 0.00 -0.1475 0.00
				CHANNELS 2 Zrotation Yrotation
				JOINT RightWrist
				{
					OFFSET 0.00 -0.1605 0.00
					CHANNELS 2 Zrotation Xrotation
					End Site
					{
						OFFSET 0.0040 -0.1068 0.0006
					}
				}
			}
		}
		JOINT LeftShoulder
		{
			OFFSET 0.0119 0.2289 -0.1181
			CHANNELS 3 Zrotation Xrotation Yrotation
			JOINT LeftElbow
			{
				OFFSET 0.00 -0.1475 0.00
				CHANNELS 2 Zrotation Yrotation
				JOINT LeftWrist
				{
					OFFSET 0.00 -0.1605 0.00
					CHANNELS 2 Zrotation Xrotation
					End Site
					{
						OFFSET 0.0040 -0.1068 -0.0006
					}
				}
			}
		}
	}
	JOINT RightHip
	{
		OFFSET 0.0316 -0.0424 0.0458
		CHANNELS 3 Zrotation Xrotation Yrotation
		JOINT RightKnee
		{
			OFFSET 0.00 -0.2438 0.00
			CHANNELS 1 Zrotation
			JOINT RightAnkle
			{
				OFFSET 0.00 -0.2449 0.00
				CHANNELS 3 Zrotation Xrotation Yrotation
				End Site
				{
					OFFSET 0.1237 -0.0542 0.0051
				}
			}
		}
	}
	JOINT LeftHip
	{
		OFFSET 0.0316 -0.0424 -0.0458
		CHANNELS 3 Zrotation Xrotation Yrotation
		JOINT LeftKnee
		{
			OFFSET 0.00 -0.2438 0.00
			CHANNELS 1 Zrotation
			JOINT LeftAnkle
			{
				OFFSET 0.00 -0.2449 0.00
				CHANNELS 3 Zrotation Xrotation Yrotation
				End Site
				{
					OFFSET 0.1237 -0.0542 -0.0051
				}
			}
		}
	}
}
MOTION
Frames: 33
Frame Time: 0.02
-0.29992 -0.05945 0.05852 11.10508 -19.36848 -0.56829 38.98221 1.37209 -10.78541 -23.88591 2.23089 -0.83079 -61.4163 -12.66355 -16.75648 137.62133 34.49476 41.41863 -12.18736 -54.49452 12.35978 19.83339 137.59744 -33.54161 37.2398 9.97297 33.64987 -0.27841 -7.48416 -26.35385 -6.62801 -3.34355 -2.39011 52.7113 11.77372 -0.71934 -17.42187 -11.60343 2.55606 2.19286
-0.2954 -0.0587 0.05407 11.27375 -19.3818 -0.59189 39.0186 1.34439 -10.52344 -24.0663 2.3574 -0.83079 -61.44184 -10.18491 -18.33712 137.62834 33.8172 41.48012 -12.28708 -55.08388 11.07647 23.19071 137.64578 -31.80206 37.20638 10.08057 33.19497 -0.50912 -7.1699 -26.50166 -6.64069 -3.41803 -2.43068 52.59832 11.31603 -1.00166 -17.52247 -11.64483 2.5116 2.16804
-0.29085 -0.05791 0.04907 11.54036 -19.34575 -0.61266 38.98644 1.29622 -10.25916 -24.06084 2.49237 -0.83079 -61.11375 -8.11073 -20.78229 137.62385 33.16999 40.92225 -12.18538 -54.56356 11.19078 27.52543 137.62555 -32.65843 35.48924 10.03133 32.66614 -0.79697 -6.92305 -26.62582 -6.67077 -3.50153 -2.477 52.50155 10.80909 -1.01116 -18.42141 -11.72575 2.47002 2.14524
-0.28629 -0.0571 0.04427 11.75711 -19.33863 -0.63029 39.00226 1.25831 -9.99301 -24.14001 2.62174 -0.83079 -60.85146 -6.01097 -22.86523 137.61139 32.65445 40.36146 -12.06924 -54.49343 10.74031 31.37368 137.56175 -32.73312 34.48036 9.9658 32.17468 -1.07021 -6.65254 -26.7578 -6.69435 -3.57885 -2.51964 52.39514 10.32377 -1.12729 -18.94434 -11.781 2.42708 2.1212
-0.28181 -0.05644 0.03966 11.99828 -19.30314 -0.6676 38.95007 1.2158 -9.73926 -24.22332 2.758 -0.83079 -60.94287 -3.26386 -24.81174 137.66218 31.61968 40.9333 -12.37174 -54.61786 9.98651 35.38557 137.78794 -31.15684 33.75381 10.24716 31.66515 -1.29569 -6.35376 -26.90241 -6.71172 -3.6654 -2.567 52.30089 9.84058 -1.32336 -19.54107 -11.86815 2.38341 2.098
-0.27716 -0.05547 0.03452 12.20976 -19.31388 -0.66246 39.02075 1.17852 -9.45852 -24.25274 2.88209 -0.83079 -60.2378 -1.93933 -27.23988 137.56842 31.63026 39.05985 -11.78309 -54.09195 10.18511 39.28417 137.4026 -33.53681 32.02479 9.79111 31.17565 -1.63451 -6.12702 -27.01561 -6.74652 -3.73466 -2.60579 52.1817 9.34034 -1.29103 -20.16726 -11.89812 2.34324 2.07423
-0.27202 -0.05362 0.02811 12.33245 -19.48231 -0.546 39.463 1.15693 -9.11146 -24.16924 2.9708 -0.83079 -57.34452 -4.61576 -30.9149 137.17135 34.60382 30.15201 -8.56236 -51.9752 12.84077 42.75599 135.36246 -47.30849 27.92393 7.16714 30.77088 -2.26733 -6.11091 -27.04157 -6.8222 -3.75453 -2.6197 52.02016 8.82234 -0.62322 -20.67359 -11.76502 2.29989 2.04175
-0.26671 -0.05146 0.02118 12.41878 -19.69564 -0.38601 40.0273 1.14204 -8.73637 -24.0386 3.04706 -0.83079 -53.68269 -8.67634 -35.02198 136.61517 38.5989 18.88826 -4.49235 -49.25941 16.37729 46.05919 132.71328 -64.78773 22.87291 3.83819 30.38743 -3.0127 -6.15892 -27.03867 -6.91552 -3.75665 -2.62479 51.82717 8.28664 0.2563 -21.18062 -11.57233 2.26179 2.00963
-0.26148 -0.04945 0.01446 12.51026 -19.87745 -0.24229 40.52647 1.1266 -8.3687 -23.93532 3.12877 -0.83079 -50.42653 -11.99101 -38.85168 136.06687 42.06065 8.99316 -0.95937 -46.86448 19.40397 49.36299 130.33118 -79.84248 18.25584 0.94587 29.98697 -3.71024 -6.16056 -27.05185 -7.00251 -3.76634 -2.63367 51.6288 7.74732 0.99029 -21.68834 -11.40413 2.22977 1.98197
-0.25623 -0.04739 0.00783 12.65257 -20.10585 -0.11275 41.06763 1.09995 -8.02179 -23.80172 3.21128 -0.83079 -46.91488 -15.8167 -43.05957 135.77692 45.82252 -2.17665 3.21113 -44.22187 22.9453 53.02679 127.9731 -98.06235 13.55554 -2.43853 29.61377 -4.39739 -6.24137 -27.04807 -7.08237 -3.778 -2.64339 51.51463 7.25295 1.93034 -22.21935 -11.24821 2.16388 1.93579
-0.25099 -0.04537 0.0009 12.67987 -20.24674 0.05594 41.54674 1.09846 -7.627 -23.72106 3.2895 -0.83079 -43.76302 -18.89719 -46.56326 134.92782 49.19391 -11.2496 6.26213 -41.97144 25.60088 55.88129 125.43899 -110.59499 8.84508 -4.96875 29.19106 -5.13011 -6.16648 -27.07763 -7.18179 -3.78179 -2.64956 51.21668 6.66457 2.50231 -22.69234 -11.05209 2.16753 1.92705
-0.24576 -0.04351 -0.00677 12.39145 -20.15079 0.32781 41.86289 1.16518 -7.09045 -23.81074 3.35495 -0.83079 -41.75085 -19.61431 -48.07725 132.43194 51.29154 -13.89049 5.93221 -40.92203 25.63176 56.59286 122.41872 -106.00033 4.16986 -4.91966 28.61859 -5.97889 -5.69316 -27.16962 -7.32462 -3.7627 -2.64456 50.42542 5.79363 1.87897 -22.99313 -10.75929 2.38124 2.03223
-0.24055 -0.04171 -0.01473 11.98952 -19.9627 0.63634 42.10548 1.25694 -6.51015 -23.95369 3.41716 -0.83079 -40.13761 -19.52512 -48.84991 129.40586 52.94776 -14.34818 4.46077 -40.29845 24.72797 56.4794 119.27121 -95.63624 -0.44348 -3.99475 27.99894 -6.8663 -5.05418 -27.30473 -7.48775 -3.73699 -2.63678 49.44933 4.83381 0.89806 -23.23336 -10.42815 2.6614 2.17323
-0.23536 -0.03993 -0.02255 11.64347 -19.80646 0.9245 42.35708 1.33718 -5.9602 -24.06516 3.4835 -0.83079 -38.37029 -19.78177 -49.92068 126.71487 54.77328 -15.84591 3.56432 -39.50498 24.21988 56.70832 116.27937 -88.24067 -4.96508 -3.50161 27.40442 -7.72373 -4.45671 -27.44225 -7.64546 -3.7182 -2.63273 48.5531 3.93317 0.16571 -23.50534 -10.11431 2.89811 2.29065
-0.23005 -0.03796 -0.03045 11.27746 -19.69333 1.23043 42.71631 1.41858 -5.36355 -24.20638 3.5384 -0.83079 -36.45847 -20.17531 -51.1796 123.61883 56.77733 -17.2268 2.4595 -38.59228 23.86227 57.0781 112.85061 -79.5187 -10.02446 -2.89082 26.78868 -8.63648 -3.99429 -27.4793 -7.78716 -3.68342 -2.61857 47.67185 2.95357 -0.91324 -23.76115 -9.79812 3.1898 2.43828
-0.225 -0.03639 -0.03823 10.92731 -19.46886 1.50673 42.83192 1.50299 -4.85606 -24.29791 3.61625 -0.83079 -34.95559 -20.07241 -51.85389 121.24517 58.27798 -18.29851 1.50746 -38.03426 22.96245 56.94976 110.31279 -72.13349 -13.93956 -2.30772 26.21364 -9.44307 -3.2227 -27.74445 -7.96748 -3.67919 -2.62417 46.71768 2.11626 -1.36948 -24.03472 -9.47951 3.38413 2.5323
-0.22059 -0.03585 -0.04574 10.64188 -18.95165 1.69787 42.29576 1.59356 -4.58976 -24.24863 3.76046 -0.83079 -34.46053 -18.80639 -51.18335 120.97524 58.61289 -19.06081 1.24331 -38.37789 20.74976 55.73937 110.24346 -69.89 -14.67237 -2.014 25.69487 -9.93313 -1.53173 -28.5577 -8.24336 -3.77358 -2.69193 45.59257 1.70657 0.08069 -24.38285 -9.15532 3.28066 2.46236
-0.21647 -0.0357 -0.0531 10.37767 -18.32703 1.85629 41.51602 1.68574 -4.41814 -24.14618 3.92741 -0.83079 -34.37055 -17.06199 -49.93052 121.45503 58.43468 -19.57015 1.1702 -39.06063 18.03019 54.03988 111.08272 -69.1641 -14.25603 -1.7757 25.23158 -10.31604 0.44532 -29.61156 -8.55825 -3.89706 -2.77867 44.40359 1.44175 2.15156 -24.74863 -8.83197 3.07902 2.33846
-0.21227 -0.03539 -0.06045 10.10853 -17.75621 2.02621 40.84497 1.77427 -4.21316 -24.06187 4.08272 -0.83079 -34.11596 -15.51967 -48.88518 121.60632 58.40343 -20.18086 1.01437 -39.57563 15.56354 52.5049 111.5238 -67.6997 -14.38777 -1.50858 24.7867 -10.7578 2.22185 -30.6033 -8.85947 -3.99848 -2.85193 43.2534 1.10101 3.87025 -25.09955 -8.51381 2.93093 2.24412
-0.20783 -0.035 -0.06813 9.81593 -17.16022 2.21309 40.17898 1.87511 -3.96436 -24.004 4.24392 -0.83079 -33.79684 -14.00501 -48.05869 121.68847 58.70043 -20.78787 0.8031 -40.16815 12.95792 51.18453 111.89693 -66.24507 -14.41613 -1.22413 24.15457 -11.16217 4.30113 -31.40091 -9.14515 -4.13529 -2.94462 42.05457 0.79587 5.86704 -25.4782 -8.17031 2.74841 2.13025
-0.20397 -0.03487 -0.07508 9.57818 -16.59349 2.35458 39.44672 1.95146 -3.8317 -23.87879 4.39766 -0.83079 -33.69786 -12.34177 -46.6437 122.09829 58.22393 -21.35362 0.76597 -40.66735 10.54807 49.31224 112.63022 -65.20201 -14.37852 -1.00351 23.92804 -11.61336 5.81647 -32.65472 -9.47111 -4.20751 -3.00258 40.94548 0.45696 7.44352 -25.80286 -7.88084 2.61219 2.04316
-0.20161 -0.03539 -0.08015 9.49197 -16.1249 2.39396 38.58135 1.95034 -3.98074 -23.56998 4.53085 -0.83079 -34.15506 -10.28189 -43.78259 123.24378 55.50816 -22.02007 1.17893 -40.885 8.6821 46.03336 114.12806 -64.97628 -14.5166 -0.91669 24.79251 -12.26383 5.69604 -35.14594 -9.90771 -4.07581 -2.94974 40.09154 -0.05178 7.64653 -25.98467 -7.73617 2.63855 2.04863
-0.19984 -0.03614 -0.08448 9.45991 -15.692 2.38577 37.66003 1.9262 -4.24605 -23.19603 4.65487 -0.83079 -34.81028 -8.11256 -40.34653 124.69305 52.07499 -22.63614 1.7626 -40.98461 7.05871 42.21948 115.95893 -65.13293 -14.61437 -0.89898 26.0658 -12.9571 4.99905 -38.07784 -10.38159 -3.88143 -2.86313 39.33319 -0.59178 7.41611 -26.10991 -7.64683 2.71282 2.08189
-0.19782 -0.03675 -0.08908 9.40004 -15.24857 2.38911 36.77084 1.91864 -4.4694 -22.85976 4.77917 -0.83079 -35.34029 -6.0646 -37.15307 125.99669 49.12438 -23.18564 2.26406 -41.09654 5.40686 38.65748 117.64334 -65.10693 -14.67979 -0.87666 27.16296 -13.60141 4.57072 -40.78776 -10.8326 -3.72807 -2.79883 38.53668 -1.0895 7.4287 -26.25437 -7.53508 2.75744 2.09852
-0.19572 -0.03753 -0.09393 9.35392 -14.77567 2.43376 35.84411 1.88515 -4.65221 -22.49131 4.91996 -0.83079 -36.02838 -3.69555 -34.0164 127.3586 45.50092 -24.10182 2.79352 -41.39218 3.38765 35.04511 119.33962 -65.16085 -14.91677 -0.75465 28.22353 -14.36511 4.12412 -43.61051 -11.31058 -3.52343 -2.70618 37.71306 -1.69904 7.27737 -26.42662 -7.41174 2.83081 2.12958
-0.19393 -0.038 -0.09809 9.29233 -14.3761 2.38171 34.98636 1.90038 -4.9432 -22.17043 5.02485 -0.83079 -36.43516 -1.97746 -30.63426 128.66099 43.10755 -24.24689 3.2997 -41.27627 2.20271 31.41185 121.07733 -65.12865 -14.80464 -0.84093 29.4538 -14.89356 3.57533 -46.28375 -11.74 -3.40957 -2.66383 36.97255 -2.0871 7.34519 -26.52754 -7.32573 2.85837 2.13865
-0.19289 -0.03755 -0.1006 9.17006 -14.15329 2.07295 34.32734 2.0536 -5.52684 -22.03812 5.02431 -0.83079 -35.95877 -2.07086 -26.70559 129.72484 44.37111 -22.2703 3.72837 -40.01931 3.22211 27.90309 122.85031 -64.6942 -13.72015 -1.62319 31.07564 -14.74695 2.88181 -48.56907 -12.03182 -3.56803 -2.77263 36.41244 -1.83803 8.22033 -26.44359 -7.32893 2.7357 2.0738
-0.19214 -0.03677 -0.10244 9.03131 -14.00676 1.66926 33.74253 2.25675 -6.21073 -21.94931 4.98912 -0.83079 -35.19997 -2.82715 -22.55565 130.71298 46.89408 -19.52228 4.12214 -38.35685 5.08009 24.38687 124.64626 -64.16702 -12.29557 -2.5914 32.84831 -14.36598 2.10582 -50.66069 -12.27202 -3.81855 -2.93231 35.93771 -1.36904 9.31111 -26.29015 -7.3678 2.56784 1.98725
-0.19126 -0.03614 -0.10456 8.90286 -13.83705 1.30964 33.1278 2.43883 -6.83348 -21.81271 4.97571 -0.83079 -34.60793 -3.29198 -18.5147 131.73402 48.77502 -17.1314 4.51157 -36.90005 6.58664 20.84031 126.42842 -63.72063 -11.04364 -3.37808 34.53818 -14.10199 1.36695 -52.75523 -12.53225 -4.02279 -3.06611 35.44126 -1.01323 10.23551 -26.16946 -7.39064 2.42921 1.91521
-0.1904 -0.03552 -0.10676 8.76372 -13.62013 0.94305 32.49244 2.61446 -7.52591 -21.7887 4.93784 -0.83079 -33.8659 -3.71499 -14.41292 132.77905 50.8842 -14.70888 4.98991 -35.34861 7.98756 17.40847 128.24611 -63.12161 -9.7105 -4.55781 36.30774 -13.793 0.60456 -55.23286 -12.80914 -4.24414 -3.21074 34.87647 -0.60259 11.42902 -26.04144 -7.41491 2.2561 1.82484
-0.18955 -0.03481 -0.10864 8.64312 -13.51907 0.57077 31.9215 2.81418 -8.09579 -21.54562 4.94116 -0.83079 -33.36026 -4.37943 -10.39887 133.74386 52.8774 -12.17228 5.27558 -33.90009 9.79008 13.75384 129.9793 -62.81792 -8.46978 -4.98597 37.93525 -13.5243 -0.11455 -56.85045 -13.03748 -4.45189 -3.34488 34.47243 -0.25346 12.12488 -25.91344 -7.44363 2.14272 1.76672
-0.18871 -0.03393 -0.1099 8.57047 -13.72033 0.19162 31.48479 3.081 -8.29925 -20.65144 5.08079 -0.83079 -33.63054 -5.58841 -6.63647 134.57313 53.79498 -9.48833 5.00945 -32.83212 12.61858 9.39942 131.56897 -63.31837 -7.535 -3.08404 39.18717 -13.40067 -0.74617 -56.22617 -13.153 -4.60518 -3.44146 34.49667 -0.12872 11.34219 -25.79847 -7.47833 2.21175 1.80662
-0.18786 -0.03298 -0.11086 8.51852 -14.0351 -0.18698 31.1154 3.36791 -8.37589 -19.54272 5.26055 -0.83079 -34.13822 -7.01001 -2.9834 135.30999 54.62829 -6.7205 4.55441 -31.88439 15.79699 4.84246 133.0533 -64.12955 -6.70758 -0.45518 40.27854 -13.32986 -1.31861 -54.72523 -13.21936 -4.74081 -3.52515 34.67829 -0.0732 10.06281 -25.68711 -7.5155 2.34102 1.87891
